<mxfile host="app.diagrams.net" agent="Mozilla/5.0 (Windows NT 10.0; Win64; x64) AppleWebKit/537.36 (KHTML, like Gecko) Chrome/130.0.0.0 Safari/537.36 OPR/115.0.0.0 (Edition Yx 08)" version="25.0.3">
  <diagram id="C5RBs43oDa-KdzZeNtuy" name="Page-1">
    <mxGraphModel dx="457" dy="820" grid="0" gridSize="10" guides="1" tooltips="1" connect="1" arrows="1" fold="1" page="1" pageScale="1" pageWidth="827" pageHeight="1169" math="0" shadow="0">
      <root>
        <mxCell id="WIyWlLk6GJQsqaUBKTNV-0" />
        <mxCell id="WIyWlLk6GJQsqaUBKTNV-1" parent="WIyWlLk6GJQsqaUBKTNV-0" />
        <mxCell id="0fxn6JM3_qL6qEKzhgQC-0" value="Начало" style="rounded=1;whiteSpace=wrap;html=1;" parent="WIyWlLk6GJQsqaUBKTNV-1" vertex="1">
          <mxGeometry x="391" y="51" width="120" height="60" as="geometry" />
        </mxCell>
        <mxCell id="0fxn6JM3_qL6qEKzhgQC-1" value="Выберите типы данных в Python" style="rounded=0;whiteSpace=wrap;html=1;" parent="WIyWlLk6GJQsqaUBKTNV-1" vertex="1">
          <mxGeometry x="391" y="143" width="120" height="60" as="geometry" />
        </mxCell>
        <mxCell id="0fxn6JM3_qL6qEKzhgQC-3" value="" style="endArrow=classic;html=1;rounded=0;fontFamily=Times New Roman;verticalAlign=bottom;labelBackgroundColor=none;fontColor=#000000;textShadow=0;labelBorderColor=default;strokeColor=#000000;entryX=0.5;entryY=0;entryDx=0;entryDy=0;exitX=0.5;exitY=1;exitDx=0;exitDy=0;" parent="WIyWlLk6GJQsqaUBKTNV-1" source="0fxn6JM3_qL6qEKzhgQC-0" target="0fxn6JM3_qL6qEKzhgQC-1" edge="1">
          <mxGeometry width="50" height="50" relative="1" as="geometry">
            <mxPoint x="451" y="132" as="sourcePoint" />
            <mxPoint x="317.1600000000001" y="243" as="targetPoint" />
          </mxGeometry>
        </mxCell>
        <mxCell id="0fxn6JM3_qL6qEKzhgQC-4" value="&lt;div&gt;a:=none&lt;/div&gt;&lt;div&gt;b:=variable&lt;/div&gt;&lt;div&gt;c:=int&lt;/div&gt;&lt;div&gt;d:=double&lt;/div&gt;" style="rounded=0;whiteSpace=wrap;html=1;" parent="WIyWlLk6GJQsqaUBKTNV-1" vertex="1">
          <mxGeometry x="390.99" y="224" width="120" height="60" as="geometry" />
        </mxCell>
        <mxCell id="0fxn6JM3_qL6qEKzhgQC-9" style="edgeStyle=orthogonalEdgeStyle;rounded=0;orthogonalLoop=1;jettySize=auto;html=1;entryX=0;entryY=0.5;entryDx=0;entryDy=0;exitX=0;exitY=0.5;exitDx=0;exitDy=0;" parent="WIyWlLk6GJQsqaUBKTNV-1" source="0fxn6JM3_qL6qEKzhgQC-5" target="0fxn6JM3_qL6qEKzhgQC-1" edge="1">
          <mxGeometry relative="1" as="geometry">
            <Array as="points">
              <mxPoint x="371" y="341" />
              <mxPoint x="371" y="173" />
            </Array>
          </mxGeometry>
        </mxCell>
        <mxCell id="0fxn6JM3_qL6qEKzhgQC-10" style="edgeStyle=orthogonalEdgeStyle;rounded=0;orthogonalLoop=1;jettySize=auto;html=1;" parent="WIyWlLk6GJQsqaUBKTNV-1" source="0fxn6JM3_qL6qEKzhgQC-5" target="0fxn6JM3_qL6qEKzhgQC-8" edge="1">
          <mxGeometry relative="1" as="geometry" />
        </mxCell>
        <mxCell id="0fxn6JM3_qL6qEKzhgQC-5" value="a:=none&lt;br&gt;c:=int" style="rhombus;whiteSpace=wrap;html=1;" parent="WIyWlLk6GJQsqaUBKTNV-1" vertex="1">
          <mxGeometry x="393.87" y="312" width="114.25" height="57" as="geometry" />
        </mxCell>
        <mxCell id="0fxn6JM3_qL6qEKzhgQC-6" value="" style="endArrow=classic;html=1;rounded=0;fontFamily=Times New Roman;verticalAlign=bottom;labelBackgroundColor=none;fontColor=#000000;textShadow=0;labelBorderColor=default;strokeColor=#000000;entryX=0.5;entryY=0;entryDx=0;entryDy=0;exitX=0.5;exitY=1;exitDx=0;exitDy=0;" parent="WIyWlLk6GJQsqaUBKTNV-1" source="0fxn6JM3_qL6qEKzhgQC-1" target="0fxn6JM3_qL6qEKzhgQC-4" edge="1">
          <mxGeometry width="50" height="50" relative="1" as="geometry">
            <mxPoint x="254.16000000000008" y="227" as="sourcePoint" />
            <mxPoint x="254.16000000000008" y="347" as="targetPoint" />
          </mxGeometry>
        </mxCell>
        <mxCell id="0fxn6JM3_qL6qEKzhgQC-7" value="" style="endArrow=classic;html=1;rounded=0;fontFamily=Times New Roman;verticalAlign=bottom;labelBackgroundColor=none;fontColor=#000000;textShadow=0;labelBorderColor=default;strokeColor=#000000;exitX=0.5;exitY=1;exitDx=0;exitDy=0;entryX=0.5;entryY=0;entryDx=0;entryDy=0;" parent="WIyWlLk6GJQsqaUBKTNV-1" source="0fxn6JM3_qL6qEKzhgQC-4" edge="1">
          <mxGeometry width="50" height="50" relative="1" as="geometry">
            <mxPoint x="233.16000000000008" y="307" as="sourcePoint" />
            <mxPoint x="451" y="312" as="targetPoint" />
          </mxGeometry>
        </mxCell>
        <mxCell id="0fxn6JM3_qL6qEKzhgQC-8" value="Конец" style="rounded=1;whiteSpace=wrap;html=1;" parent="WIyWlLk6GJQsqaUBKTNV-1" vertex="1">
          <mxGeometry x="391" y="410" width="120" height="60" as="geometry" />
        </mxCell>
        <mxCell id="0fxn6JM3_qL6qEKzhgQC-12" value="Нет" style="text;html=1;align=center;verticalAlign=middle;resizable=0;points=[];autosize=1;strokeColor=none;fillColor=none;" parent="WIyWlLk6GJQsqaUBKTNV-1" vertex="1">
          <mxGeometry x="331" y="251" width="38" height="26" as="geometry" />
        </mxCell>
        <mxCell id="0fxn6JM3_qL6qEKzhgQC-13" value="Да" style="text;html=1;align=center;verticalAlign=middle;resizable=0;points=[];autosize=1;strokeColor=none;fillColor=none;" parent="WIyWlLk6GJQsqaUBKTNV-1" vertex="1">
          <mxGeometry x="453" y="373" width="33" height="26" as="geometry" />
        </mxCell>
        <mxCell id="0fxn6JM3_qL6qEKzhgQC-17" value="Начало" style="rounded=1;whiteSpace=wrap;html=1;" parent="WIyWlLk6GJQsqaUBKTNV-1" vertex="1">
          <mxGeometry x="622" y="51" width="120" height="60" as="geometry" />
        </mxCell>
        <mxCell id="0fxn6JM3_qL6qEKzhgQC-19" value="" style="endArrow=classic;html=1;rounded=0;fontFamily=Times New Roman;verticalAlign=bottom;labelBackgroundColor=none;fontColor=#000000;textShadow=0;labelBorderColor=default;strokeColor=#000000;entryX=0.5;entryY=0;entryDx=0;entryDy=0;exitX=0.5;exitY=1;exitDx=0;exitDy=0;" parent="WIyWlLk6GJQsqaUBKTNV-1" source="0fxn6JM3_qL6qEKzhgQC-17" target="xkb5xISunmPG4iCDEJVh-0" edge="1">
          <mxGeometry width="50" height="50" relative="1" as="geometry">
            <mxPoint x="548.1600000000001" y="102" as="sourcePoint" />
            <mxPoint x="682" y="132" as="targetPoint" />
          </mxGeometry>
        </mxCell>
        <mxCell id="0fxn6JM3_qL6qEKzhgQC-26" value="Конец" style="rounded=1;whiteSpace=wrap;html=1;" parent="WIyWlLk6GJQsqaUBKTNV-1" vertex="1">
          <mxGeometry x="622" y="947" width="120" height="60" as="geometry" />
        </mxCell>
        <mxCell id="0fxn6JM3_qL6qEKzhgQC-29" value="Задание 1" style="text;html=1;align=center;verticalAlign=middle;whiteSpace=wrap;rounded=0;" parent="WIyWlLk6GJQsqaUBKTNV-1" vertex="1">
          <mxGeometry x="420.99" y="6" width="60" height="30" as="geometry" />
        </mxCell>
        <mxCell id="0fxn6JM3_qL6qEKzhgQC-30" value="Задание 2" style="text;html=1;align=center;verticalAlign=middle;whiteSpace=wrap;rounded=0;" parent="WIyWlLk6GJQsqaUBKTNV-1" vertex="1">
          <mxGeometry x="652" y="13" width="60" height="30" as="geometry" />
        </mxCell>
        <mxCell id="xkb5xISunmPG4iCDEJVh-49" style="edgeStyle=orthogonalEdgeStyle;rounded=0;orthogonalLoop=1;jettySize=auto;html=1;entryX=0.5;entryY=0;entryDx=0;entryDy=0;" edge="1" parent="WIyWlLk6GJQsqaUBKTNV-1" source="xkb5xISunmPG4iCDEJVh-0" target="xkb5xISunmPG4iCDEJVh-1">
          <mxGeometry relative="1" as="geometry" />
        </mxCell>
        <mxCell id="xkb5xISunmPG4iCDEJVh-0" value="i = 2&lt;br&gt;&amp;nbsp;s = 1" style="shape=parallelogram;perimeter=parallelogramPerimeter;whiteSpace=wrap;html=1;fixedSize=1;" vertex="1" parent="WIyWlLk6GJQsqaUBKTNV-1">
          <mxGeometry x="622" y="143" width="120" height="60" as="geometry" />
        </mxCell>
        <mxCell id="xkb5xISunmPG4iCDEJVh-5" style="edgeStyle=orthogonalEdgeStyle;rounded=0;orthogonalLoop=1;jettySize=auto;html=1;entryX=0.5;entryY=0;entryDx=0;entryDy=0;" edge="1" parent="WIyWlLk6GJQsqaUBKTNV-1" source="xkb5xISunmPG4iCDEJVh-1" target="xkb5xISunmPG4iCDEJVh-2">
          <mxGeometry relative="1" as="geometry" />
        </mxCell>
        <mxCell id="xkb5xISunmPG4iCDEJVh-12" style="edgeStyle=orthogonalEdgeStyle;rounded=0;orthogonalLoop=1;jettySize=auto;html=1;entryX=0.5;entryY=0;entryDx=0;entryDy=0;" edge="1" parent="WIyWlLk6GJQsqaUBKTNV-1" source="xkb5xISunmPG4iCDEJVh-1" target="xkb5xISunmPG4iCDEJVh-13">
          <mxGeometry relative="1" as="geometry">
            <mxPoint x="663" y="721" as="targetPoint" />
            <Array as="points">
              <mxPoint x="572" y="275" />
              <mxPoint x="572" y="717" />
              <mxPoint x="682" y="717" />
            </Array>
          </mxGeometry>
        </mxCell>
        <mxCell id="xkb5xISunmPG4iCDEJVh-1" value="i &amp;lt; 10" style="shape=hexagon;perimeter=hexagonPerimeter2;whiteSpace=wrap;html=1;fixedSize=1;" vertex="1" parent="WIyWlLk6GJQsqaUBKTNV-1">
          <mxGeometry x="622" y="235" width="120" height="80" as="geometry" />
        </mxCell>
        <mxCell id="xkb5xISunmPG4iCDEJVh-6" style="edgeStyle=orthogonalEdgeStyle;rounded=0;orthogonalLoop=1;jettySize=auto;html=1;entryX=0.5;entryY=0;entryDx=0;entryDy=0;" edge="1" parent="WIyWlLk6GJQsqaUBKTNV-1" source="xkb5xISunmPG4iCDEJVh-2" target="xkb5xISunmPG4iCDEJVh-3">
          <mxGeometry relative="1" as="geometry" />
        </mxCell>
        <mxCell id="xkb5xISunmPG4iCDEJVh-2" value="i = i + 2" style="rounded=0;whiteSpace=wrap;html=1;" vertex="1" parent="WIyWlLk6GJQsqaUBKTNV-1">
          <mxGeometry x="622" y="336" width="120" height="60" as="geometry" />
        </mxCell>
        <mxCell id="xkb5xISunmPG4iCDEJVh-7" style="edgeStyle=orthogonalEdgeStyle;rounded=0;orthogonalLoop=1;jettySize=auto;html=1;entryX=0.5;entryY=0;entryDx=0;entryDy=0;" edge="1" parent="WIyWlLk6GJQsqaUBKTNV-1" source="xkb5xISunmPG4iCDEJVh-3" target="xkb5xISunmPG4iCDEJVh-4">
          <mxGeometry relative="1" as="geometry" />
        </mxCell>
        <mxCell id="xkb5xISunmPG4iCDEJVh-9" style="edgeStyle=orthogonalEdgeStyle;rounded=0;orthogonalLoop=1;jettySize=auto;html=1;entryX=1;entryY=0.5;entryDx=0;entryDy=0;" edge="1" parent="WIyWlLk6GJQsqaUBKTNV-1" source="xkb5xISunmPG4iCDEJVh-3" target="xkb5xISunmPG4iCDEJVh-8">
          <mxGeometry relative="1" as="geometry">
            <Array as="points">
              <mxPoint x="762" y="461" />
              <mxPoint x="762" y="631" />
              <mxPoint x="707" y="631" />
            </Array>
          </mxGeometry>
        </mxCell>
        <mxCell id="xkb5xISunmPG4iCDEJVh-3" value="i%3 ==1" style="rounded=0;whiteSpace=wrap;html=1;" vertex="1" parent="WIyWlLk6GJQsqaUBKTNV-1">
          <mxGeometry x="622" y="431" width="120" height="60" as="geometry" />
        </mxCell>
        <mxCell id="xkb5xISunmPG4iCDEJVh-10" style="edgeStyle=orthogonalEdgeStyle;rounded=0;orthogonalLoop=1;jettySize=auto;html=1;entryX=0.5;entryY=0;entryDx=0;entryDy=0;" edge="1" parent="WIyWlLk6GJQsqaUBKTNV-1" source="xkb5xISunmPG4iCDEJVh-4" target="xkb5xISunmPG4iCDEJVh-8">
          <mxGeometry relative="1" as="geometry" />
        </mxCell>
        <mxCell id="xkb5xISunmPG4iCDEJVh-4" value="s*=i" style="rounded=0;whiteSpace=wrap;html=1;" vertex="1" parent="WIyWlLk6GJQsqaUBKTNV-1">
          <mxGeometry x="621.99" y="530" width="120" height="60" as="geometry" />
        </mxCell>
        <mxCell id="xkb5xISunmPG4iCDEJVh-11" style="edgeStyle=orthogonalEdgeStyle;rounded=0;orthogonalLoop=1;jettySize=auto;html=1;entryX=1;entryY=0.5;entryDx=0;entryDy=0;" edge="1" parent="WIyWlLk6GJQsqaUBKTNV-1" source="xkb5xISunmPG4iCDEJVh-8" target="xkb5xISunmPG4iCDEJVh-1">
          <mxGeometry relative="1" as="geometry">
            <Array as="points">
              <mxPoint x="682" y="677" />
              <mxPoint x="817" y="677" />
              <mxPoint x="817" y="275" />
            </Array>
          </mxGeometry>
        </mxCell>
        <mxCell id="xkb5xISunmPG4iCDEJVh-8" value="" style="rhombus;whiteSpace=wrap;html=1;" vertex="1" parent="WIyWlLk6GJQsqaUBKTNV-1">
          <mxGeometry x="656.5" y="609" width="51" height="43" as="geometry" />
        </mxCell>
        <mxCell id="xkb5xISunmPG4iCDEJVh-47" style="edgeStyle=orthogonalEdgeStyle;rounded=0;orthogonalLoop=1;jettySize=auto;html=1;entryX=0.5;entryY=0;entryDx=0;entryDy=0;" edge="1" parent="WIyWlLk6GJQsqaUBKTNV-1" source="xkb5xISunmPG4iCDEJVh-13" target="xkb5xISunmPG4iCDEJVh-46">
          <mxGeometry relative="1" as="geometry" />
        </mxCell>
        <mxCell id="xkb5xISunmPG4iCDEJVh-13" value="Print(s)" style="rounded=0;whiteSpace=wrap;html=1;" vertex="1" parent="WIyWlLk6GJQsqaUBKTNV-1">
          <mxGeometry x="621.99" y="753" width="120" height="60" as="geometry" />
        </mxCell>
        <mxCell id="xkb5xISunmPG4iCDEJVh-50" style="edgeStyle=orthogonalEdgeStyle;rounded=0;orthogonalLoop=1;jettySize=auto;html=1;" edge="1" parent="WIyWlLk6GJQsqaUBKTNV-1" source="xkb5xISunmPG4iCDEJVh-15" target="xkb5xISunmPG4iCDEJVh-17">
          <mxGeometry relative="1" as="geometry" />
        </mxCell>
        <mxCell id="xkb5xISunmPG4iCDEJVh-15" value="Начало" style="rounded=1;whiteSpace=wrap;html=1;" vertex="1" parent="WIyWlLk6GJQsqaUBKTNV-1">
          <mxGeometry x="897" y="51" width="120" height="60" as="geometry" />
        </mxCell>
        <mxCell id="xkb5xISunmPG4iCDEJVh-16" value="&lt;span style=&quot;color: rgb(0, 0, 0); font-family: Helvetica; font-size: 12px; font-style: normal; font-variant-ligatures: normal; font-variant-caps: normal; font-weight: 400; letter-spacing: normal; orphans: 2; text-align: center; text-indent: 0px; text-transform: none; widows: 2; word-spacing: 0px; -webkit-text-stroke-width: 0px; white-space: normal; background-color: rgb(251, 251, 251); text-decoration-thickness: initial; text-decoration-style: initial; text-decoration-color: initial; display: inline !important; float: none;&quot;&gt;Задание 3&lt;/span&gt;" style="text;whiteSpace=wrap;html=1;" vertex="1" parent="WIyWlLk6GJQsqaUBKTNV-1">
          <mxGeometry x="927.24" y="10" width="59.51" height="36" as="geometry" />
        </mxCell>
        <mxCell id="xkb5xISunmPG4iCDEJVh-17" value="Неупорядоченные коллекции произвольных объектов с доступом по ключу" style="rounded=0;whiteSpace=wrap;html=1;" vertex="1" parent="WIyWlLk6GJQsqaUBKTNV-1">
          <mxGeometry x="882" y="143" width="149" height="73" as="geometry" />
        </mxCell>
        <mxCell id="xkb5xISunmPG4iCDEJVh-21" value="" style="endArrow=classic;html=1;rounded=0;fontFamily=Times New Roman;verticalAlign=bottom;labelBackgroundColor=none;fontColor=#000000;textShadow=0;labelBorderColor=default;strokeColor=#000000;entryX=0.5;entryY=0;entryDx=0;entryDy=0;exitX=0.5;exitY=1;exitDx=0;exitDy=0;" edge="1" parent="WIyWlLk6GJQsqaUBKTNV-1">
          <mxGeometry width="50" height="50" relative="1" as="geometry">
            <mxPoint x="962" y="222.5" as="sourcePoint" />
            <mxPoint x="962" y="243.5" as="targetPoint" />
          </mxGeometry>
        </mxCell>
        <mxCell id="xkb5xISunmPG4iCDEJVh-22" value="a:=Списо&lt;div&gt;b:=&lt;span style=&quot;background-color: initial;&quot;&gt;Словарь&lt;/span&gt;&lt;/div&gt;&lt;div&gt;c:=&amp;nbsp;&lt;span style=&quot;background-color: initial;&quot;&gt;Множество&lt;/span&gt;&lt;/div&gt;&lt;span style=&quot;background-color: initial;&quot;&gt;d:=&lt;/span&gt;Кортэж&lt;div&gt;&lt;br/&gt;&lt;/div&gt;" style="rounded=0;whiteSpace=wrap;html=1;" vertex="1" parent="WIyWlLk6GJQsqaUBKTNV-1">
          <mxGeometry x="910.5" y="239.5" width="112" height="83" as="geometry" />
        </mxCell>
        <mxCell id="xkb5xISunmPG4iCDEJVh-23" style="edgeStyle=orthogonalEdgeStyle;rounded=0;orthogonalLoop=1;jettySize=auto;html=1;entryX=0;entryY=0.5;entryDx=0;entryDy=0;exitX=0;exitY=0.5;exitDx=0;exitDy=0;" edge="1" parent="WIyWlLk6GJQsqaUBKTNV-1" source="xkb5xISunmPG4iCDEJVh-25" target="xkb5xISunmPG4iCDEJVh-22">
          <mxGeometry relative="1" as="geometry">
            <Array as="points">
              <mxPoint x="882.5" y="379.5" />
              <mxPoint x="882.5" y="281.5" />
              <mxPoint x="900.5" y="281.5" />
            </Array>
            <mxPoint x="901.5" y="192.5" as="targetPoint" />
          </mxGeometry>
        </mxCell>
        <mxCell id="xkb5xISunmPG4iCDEJVh-24" style="edgeStyle=orthogonalEdgeStyle;rounded=0;orthogonalLoop=1;jettySize=auto;html=1;" edge="1" parent="WIyWlLk6GJQsqaUBKTNV-1" source="xkb5xISunmPG4iCDEJVh-25" target="xkb5xISunmPG4iCDEJVh-28">
          <mxGeometry relative="1" as="geometry" />
        </mxCell>
        <mxCell id="xkb5xISunmPG4iCDEJVh-25" value="b:=&lt;span style=&quot;background-color: initial;&quot;&gt;Словарь&lt;/span&gt;" style="rhombus;whiteSpace=wrap;html=1;" vertex="1" parent="WIyWlLk6GJQsqaUBKTNV-1">
          <mxGeometry x="909.37" y="350.5" width="114.25" height="57" as="geometry" />
        </mxCell>
        <mxCell id="xkb5xISunmPG4iCDEJVh-28" value="Конец" style="rounded=1;whiteSpace=wrap;html=1;" vertex="1" parent="WIyWlLk6GJQsqaUBKTNV-1">
          <mxGeometry x="906.49" y="459.5" width="120" height="60" as="geometry" />
        </mxCell>
        <mxCell id="xkb5xISunmPG4iCDEJVh-29" value="Нет" style="text;html=1;align=center;verticalAlign=middle;resizable=0;points=[];autosize=1;strokeColor=none;fillColor=none;" vertex="1" parent="WIyWlLk6GJQsqaUBKTNV-1">
          <mxGeometry x="765" y="459.5" width="38" height="26" as="geometry" />
        </mxCell>
        <mxCell id="xkb5xISunmPG4iCDEJVh-30" value="Да" style="text;html=1;align=center;verticalAlign=middle;resizable=0;points=[];autosize=1;strokeColor=none;fillColor=none;" vertex="1" parent="WIyWlLk6GJQsqaUBKTNV-1">
          <mxGeometry x="971" y="415" width="33" height="26" as="geometry" />
        </mxCell>
        <mxCell id="xkb5xISunmPG4iCDEJVh-31" value="" style="edgeStyle=orthogonalEdgeStyle;rounded=0;orthogonalLoop=1;jettySize=auto;html=1;exitX=0.5;exitY=1;exitDx=0;exitDy=0;" edge="1" parent="WIyWlLk6GJQsqaUBKTNV-1" source="xkb5xISunmPG4iCDEJVh-22" target="xkb5xISunmPG4iCDEJVh-25">
          <mxGeometry relative="1" as="geometry">
            <mxPoint x="961.5" y="406.5" as="sourcePoint" />
          </mxGeometry>
        </mxCell>
        <mxCell id="xkb5xISunmPG4iCDEJVh-51" style="edgeStyle=orthogonalEdgeStyle;rounded=0;orthogonalLoop=1;jettySize=auto;html=1;entryX=0.5;entryY=0;entryDx=0;entryDy=0;" edge="1" parent="WIyWlLk6GJQsqaUBKTNV-1" source="xkb5xISunmPG4iCDEJVh-34" target="xkb5xISunmPG4iCDEJVh-36">
          <mxGeometry relative="1" as="geometry" />
        </mxCell>
        <mxCell id="xkb5xISunmPG4iCDEJVh-34" value="Начало" style="rounded=1;whiteSpace=wrap;html=1;" vertex="1" parent="WIyWlLk6GJQsqaUBKTNV-1">
          <mxGeometry x="1120" y="51" width="120" height="60" as="geometry" />
        </mxCell>
        <mxCell id="xkb5xISunmPG4iCDEJVh-35" value="&lt;span style=&quot;color: rgb(0, 0, 0); font-family: Helvetica; font-size: 12px; font-style: normal; font-variant-ligatures: normal; font-variant-caps: normal; font-weight: 400; letter-spacing: normal; orphans: 2; text-align: center; text-indent: 0px; text-transform: none; widows: 2; word-spacing: 0px; -webkit-text-stroke-width: 0px; white-space: normal; background-color: rgb(251, 251, 251); text-decoration-thickness: initial; text-decoration-style: initial; text-decoration-color: initial; display: inline !important; float: none;&quot;&gt;Задание 4&lt;/span&gt;" style="text;whiteSpace=wrap;html=1;" vertex="1" parent="WIyWlLk6GJQsqaUBKTNV-1">
          <mxGeometry x="1145.0014285714287" y="10.004285714285778" width="86" height="36" as="geometry" />
        </mxCell>
        <mxCell id="xkb5xISunmPG4iCDEJVh-77" style="edgeStyle=orthogonalEdgeStyle;rounded=0;orthogonalLoop=1;jettySize=auto;html=1;entryX=0.5;entryY=0;entryDx=0;entryDy=0;" edge="1" parent="WIyWlLk6GJQsqaUBKTNV-1" source="xkb5xISunmPG4iCDEJVh-36" target="xkb5xISunmPG4iCDEJVh-38">
          <mxGeometry relative="1" as="geometry" />
        </mxCell>
        <mxCell id="xkb5xISunmPG4iCDEJVh-36" value="Неизменяемый список" style="rounded=0;whiteSpace=wrap;html=1;" vertex="1" parent="WIyWlLk6GJQsqaUBKTNV-1">
          <mxGeometry x="1122.99" y="148" width="114" height="68" as="geometry" />
        </mxCell>
        <mxCell id="xkb5xISunmPG4iCDEJVh-38" value="a:=Массив&lt;div&gt;b:=&lt;span style=&quot;background-color: initial;&quot;&gt;Множество&lt;/span&gt;&lt;/div&gt;&lt;div&gt;c:=&amp;nbsp;&lt;span style=&quot;background-color: initial;&quot;&gt;Словарь&lt;/span&gt;&lt;/div&gt;&lt;span style=&quot;background-color: initial;&quot;&gt;d:=&lt;/span&gt;Кортэж&lt;div&gt;&lt;br&gt;&lt;/div&gt;" style="rounded=0;whiteSpace=wrap;html=1;" vertex="1" parent="WIyWlLk6GJQsqaUBKTNV-1">
          <mxGeometry x="1123.99" y="246" width="112" height="83" as="geometry" />
        </mxCell>
        <mxCell id="xkb5xISunmPG4iCDEJVh-39" style="edgeStyle=orthogonalEdgeStyle;rounded=0;orthogonalLoop=1;jettySize=auto;html=1;entryX=0;entryY=0.5;entryDx=0;entryDy=0;exitX=0;exitY=0.5;exitDx=0;exitDy=0;" edge="1" parent="WIyWlLk6GJQsqaUBKTNV-1" source="xkb5xISunmPG4iCDEJVh-41" target="xkb5xISunmPG4iCDEJVh-38">
          <mxGeometry relative="1" as="geometry">
            <Array as="points">
              <mxPoint x="1096" y="386" />
              <mxPoint x="1096" y="288" />
              <mxPoint x="1114" y="288" />
            </Array>
            <mxPoint x="1115" y="199" as="targetPoint" />
          </mxGeometry>
        </mxCell>
        <mxCell id="xkb5xISunmPG4iCDEJVh-40" style="edgeStyle=orthogonalEdgeStyle;rounded=0;orthogonalLoop=1;jettySize=auto;html=1;" edge="1" parent="WIyWlLk6GJQsqaUBKTNV-1" source="xkb5xISunmPG4iCDEJVh-41" target="xkb5xISunmPG4iCDEJVh-42">
          <mxGeometry relative="1" as="geometry" />
        </mxCell>
        <mxCell id="xkb5xISunmPG4iCDEJVh-41" value="&lt;span style=&quot;background-color: initial;&quot;&gt;d:=&lt;/span&gt;Кортэж" style="rhombus;whiteSpace=wrap;html=1;" vertex="1" parent="WIyWlLk6GJQsqaUBKTNV-1">
          <mxGeometry x="1122.87" y="357" width="114.25" height="57" as="geometry" />
        </mxCell>
        <mxCell id="xkb5xISunmPG4iCDEJVh-42" value="Конец" style="rounded=1;whiteSpace=wrap;html=1;" vertex="1" parent="WIyWlLk6GJQsqaUBKTNV-1">
          <mxGeometry x="1119.99" y="466" width="120" height="60" as="geometry" />
        </mxCell>
        <mxCell id="xkb5xISunmPG4iCDEJVh-43" value="Да" style="text;html=1;align=center;verticalAlign=middle;resizable=0;points=[];autosize=1;strokeColor=none;fillColor=none;" vertex="1" parent="WIyWlLk6GJQsqaUBKTNV-1">
          <mxGeometry x="1182" y="421.5" width="33" height="26" as="geometry" />
        </mxCell>
        <mxCell id="xkb5xISunmPG4iCDEJVh-44" value="" style="edgeStyle=orthogonalEdgeStyle;rounded=0;orthogonalLoop=1;jettySize=auto;html=1;exitX=0.5;exitY=1;exitDx=0;exitDy=0;" edge="1" parent="WIyWlLk6GJQsqaUBKTNV-1" source="xkb5xISunmPG4iCDEJVh-38" target="xkb5xISunmPG4iCDEJVh-41">
          <mxGeometry relative="1" as="geometry">
            <mxPoint x="1175" y="413" as="sourcePoint" />
          </mxGeometry>
        </mxCell>
        <mxCell id="xkb5xISunmPG4iCDEJVh-48" style="edgeStyle=orthogonalEdgeStyle;rounded=0;orthogonalLoop=1;jettySize=auto;html=1;" edge="1" parent="WIyWlLk6GJQsqaUBKTNV-1" source="xkb5xISunmPG4iCDEJVh-46" target="0fxn6JM3_qL6qEKzhgQC-26">
          <mxGeometry relative="1" as="geometry" />
        </mxCell>
        <mxCell id="xkb5xISunmPG4iCDEJVh-46" value="S:=40" style="rounded=0;whiteSpace=wrap;html=1;" vertex="1" parent="WIyWlLk6GJQsqaUBKTNV-1">
          <mxGeometry x="622" y="841" width="120" height="60" as="geometry" />
        </mxCell>
        <mxCell id="xkb5xISunmPG4iCDEJVh-52" value="Нет" style="text;html=1;align=center;verticalAlign=middle;resizable=0;points=[];autosize=1;strokeColor=none;fillColor=none;" vertex="1" parent="WIyWlLk6GJQsqaUBKTNV-1">
          <mxGeometry x="842" y="324.5" width="38" height="26" as="geometry" />
        </mxCell>
        <mxCell id="xkb5xISunmPG4iCDEJVh-53" value="Нет" style="text;html=1;align=center;verticalAlign=middle;resizable=0;points=[];autosize=1;strokeColor=none;fillColor=none;" vertex="1" parent="WIyWlLk6GJQsqaUBKTNV-1">
          <mxGeometry x="1056" y="334" width="38" height="26" as="geometry" />
        </mxCell>
        <mxCell id="xkb5xISunmPG4iCDEJVh-65" style="edgeStyle=orthogonalEdgeStyle;rounded=0;orthogonalLoop=1;jettySize=auto;html=1;entryX=0.5;entryY=0;entryDx=0;entryDy=0;" edge="1" parent="WIyWlLk6GJQsqaUBKTNV-1" source="xkb5xISunmPG4iCDEJVh-66" target="xkb5xISunmPG4iCDEJVh-68">
          <mxGeometry relative="1" as="geometry" />
        </mxCell>
        <mxCell id="xkb5xISunmPG4iCDEJVh-66" value="Начало" style="rounded=1;whiteSpace=wrap;html=1;" vertex="1" parent="WIyWlLk6GJQsqaUBKTNV-1">
          <mxGeometry x="1314" y="51" width="120" height="60" as="geometry" />
        </mxCell>
        <mxCell id="xkb5xISunmPG4iCDEJVh-67" value="&lt;span style=&quot;color: rgb(0, 0, 0); font-family: Helvetica; font-size: 12px; font-style: normal; font-variant-ligatures: normal; font-variant-caps: normal; font-weight: 400; letter-spacing: normal; orphans: 2; text-align: center; text-indent: 0px; text-transform: none; widows: 2; word-spacing: 0px; -webkit-text-stroke-width: 0px; white-space: normal; background-color: rgb(251, 251, 251); text-decoration-thickness: initial; text-decoration-style: initial; text-decoration-color: initial; display: inline !important; float: none;&quot;&gt;Задание 5&lt;/span&gt;" style="text;whiteSpace=wrap;html=1;" vertex="1" parent="WIyWlLk6GJQsqaUBKTNV-1">
          <mxGeometry x="1337.9914285714287" y="10.004285714285778" width="86" height="36" as="geometry" />
        </mxCell>
        <mxCell id="xkb5xISunmPG4iCDEJVh-78" style="edgeStyle=orthogonalEdgeStyle;rounded=0;orthogonalLoop=1;jettySize=auto;html=1;" edge="1" parent="WIyWlLk6GJQsqaUBKTNV-1" source="xkb5xISunmPG4iCDEJVh-68" target="xkb5xISunmPG4iCDEJVh-69">
          <mxGeometry relative="1" as="geometry">
            <Array as="points">
              <mxPoint x="1374" y="240" />
              <mxPoint x="1374" y="240" />
            </Array>
          </mxGeometry>
        </mxCell>
        <mxCell id="xkb5xISunmPG4iCDEJVh-68" value="Добавить элемент в конец списка" style="rounded=0;whiteSpace=wrap;html=1;" vertex="1" parent="WIyWlLk6GJQsqaUBKTNV-1">
          <mxGeometry x="1317" y="146.5" width="114" height="68" as="geometry" />
        </mxCell>
        <mxCell id="xkb5xISunmPG4iCDEJVh-69" value="a:=list.remove&lt;div&gt;b:=&lt;span style=&quot;background-color: initial;&quot;&gt;list.insert&lt;/span&gt;&lt;/div&gt;&lt;div&gt;c:=&amp;nbsp;&lt;span style=&quot;background-color: initial;&quot;&gt;list.extend&lt;/span&gt;&lt;/div&gt;&lt;span style=&quot;background-color: initial;&quot;&gt;d:=&lt;/span&gt;list.append&lt;div&gt;&lt;br&gt;&lt;/div&gt;" style="rounded=0;whiteSpace=wrap;html=1;" vertex="1" parent="WIyWlLk6GJQsqaUBKTNV-1">
          <mxGeometry x="1319.99" y="246" width="112" height="83" as="geometry" />
        </mxCell>
        <mxCell id="xkb5xISunmPG4iCDEJVh-70" style="edgeStyle=orthogonalEdgeStyle;rounded=0;orthogonalLoop=1;jettySize=auto;html=1;entryX=0;entryY=0.5;entryDx=0;entryDy=0;exitX=0;exitY=0.5;exitDx=0;exitDy=0;" edge="1" parent="WIyWlLk6GJQsqaUBKTNV-1" source="xkb5xISunmPG4iCDEJVh-72" target="xkb5xISunmPG4iCDEJVh-69">
          <mxGeometry relative="1" as="geometry">
            <Array as="points">
              <mxPoint x="1296" y="386" />
              <mxPoint x="1296" y="288" />
              <mxPoint x="1314" y="288" />
            </Array>
            <mxPoint x="1315" y="199" as="targetPoint" />
          </mxGeometry>
        </mxCell>
        <mxCell id="xkb5xISunmPG4iCDEJVh-71" style="edgeStyle=orthogonalEdgeStyle;rounded=0;orthogonalLoop=1;jettySize=auto;html=1;" edge="1" parent="WIyWlLk6GJQsqaUBKTNV-1" source="xkb5xISunmPG4iCDEJVh-72" target="xkb5xISunmPG4iCDEJVh-73">
          <mxGeometry relative="1" as="geometry" />
        </mxCell>
        <mxCell id="xkb5xISunmPG4iCDEJVh-72" value="&lt;span style=&quot;background-color: initial;&quot;&gt;d:=&lt;/span&gt;list.append" style="rhombus;whiteSpace=wrap;html=1;" vertex="1" parent="WIyWlLk6GJQsqaUBKTNV-1">
          <mxGeometry x="1318.87" y="357" width="114.25" height="57" as="geometry" />
        </mxCell>
        <mxCell id="xkb5xISunmPG4iCDEJVh-73" value="Конец" style="rounded=1;whiteSpace=wrap;html=1;" vertex="1" parent="WIyWlLk6GJQsqaUBKTNV-1">
          <mxGeometry x="1317" y="466" width="120" height="60" as="geometry" />
        </mxCell>
        <mxCell id="xkb5xISunmPG4iCDEJVh-74" value="Да" style="text;html=1;align=center;verticalAlign=middle;resizable=0;points=[];autosize=1;strokeColor=none;fillColor=none;" vertex="1" parent="WIyWlLk6GJQsqaUBKTNV-1">
          <mxGeometry x="1382" y="421.5" width="33" height="26" as="geometry" />
        </mxCell>
        <mxCell id="xkb5xISunmPG4iCDEJVh-75" value="" style="edgeStyle=orthogonalEdgeStyle;rounded=0;orthogonalLoop=1;jettySize=auto;html=1;exitX=0.5;exitY=1;exitDx=0;exitDy=0;" edge="1" parent="WIyWlLk6GJQsqaUBKTNV-1" source="xkb5xISunmPG4iCDEJVh-69" target="xkb5xISunmPG4iCDEJVh-72">
          <mxGeometry relative="1" as="geometry">
            <mxPoint x="1375" y="413" as="sourcePoint" />
          </mxGeometry>
        </mxCell>
        <mxCell id="xkb5xISunmPG4iCDEJVh-76" value="Нет" style="text;html=1;align=center;verticalAlign=middle;resizable=0;points=[];autosize=1;strokeColor=none;fillColor=none;" vertex="1" parent="WIyWlLk6GJQsqaUBKTNV-1">
          <mxGeometry x="1256" y="334" width="38" height="26" as="geometry" />
        </mxCell>
        <mxCell id="xkb5xISunmPG4iCDEJVh-80" value="Да" style="text;html=1;align=center;verticalAlign=middle;resizable=0;points=[];autosize=1;strokeColor=none;fillColor=none;" vertex="1" parent="WIyWlLk6GJQsqaUBKTNV-1">
          <mxGeometry x="643" y="493.5" width="33" height="26" as="geometry" />
        </mxCell>
        <mxCell id="xkb5xISunmPG4iCDEJVh-82" style="edgeStyle=orthogonalEdgeStyle;rounded=0;orthogonalLoop=1;jettySize=auto;html=1;entryX=0.5;entryY=0;entryDx=0;entryDy=0;" edge="1" parent="WIyWlLk6GJQsqaUBKTNV-1" source="xkb5xISunmPG4iCDEJVh-83" target="xkb5xISunmPG4iCDEJVh-86">
          <mxGeometry relative="1" as="geometry" />
        </mxCell>
        <mxCell id="xkb5xISunmPG4iCDEJVh-83" value="Начало" style="rounded=1;whiteSpace=wrap;html=1;" vertex="1" parent="WIyWlLk6GJQsqaUBKTNV-1">
          <mxGeometry x="1487" y="51" width="120" height="60" as="geometry" />
        </mxCell>
        <mxCell id="xkb5xISunmPG4iCDEJVh-84" value="&lt;span style=&quot;color: rgb(0, 0, 0); font-family: Helvetica; font-size: 12px; font-style: normal; font-variant-ligatures: normal; font-variant-caps: normal; font-weight: 400; letter-spacing: normal; orphans: 2; text-align: center; text-indent: 0px; text-transform: none; widows: 2; word-spacing: 0px; -webkit-text-stroke-width: 0px; white-space: normal; background-color: rgb(251, 251, 251); text-decoration-thickness: initial; text-decoration-style: initial; text-decoration-color: initial; display: inline !important; float: none;&quot;&gt;Задание 6&lt;/span&gt;" style="text;whiteSpace=wrap;html=1;" vertex="1" parent="WIyWlLk6GJQsqaUBKTNV-1">
          <mxGeometry x="1510.9914285714287" y="10.004285714285778" width="86" height="36" as="geometry" />
        </mxCell>
        <mxCell id="xkb5xISunmPG4iCDEJVh-85" style="edgeStyle=orthogonalEdgeStyle;rounded=0;orthogonalLoop=1;jettySize=auto;html=1;" edge="1" parent="WIyWlLk6GJQsqaUBKTNV-1" source="xkb5xISunmPG4iCDEJVh-86" target="xkb5xISunmPG4iCDEJVh-87">
          <mxGeometry relative="1" as="geometry">
            <Array as="points">
              <mxPoint x="1547" y="240" />
              <mxPoint x="1547" y="240" />
            </Array>
          </mxGeometry>
        </mxCell>
        <mxCell id="xkb5xISunmPG4iCDEJVh-86" value="z, *param=input" style="rounded=0;whiteSpace=wrap;html=1;" vertex="1" parent="WIyWlLk6GJQsqaUBKTNV-1">
          <mxGeometry x="1490" y="146.5" width="114" height="68" as="geometry" />
        </mxCell>
        <mxCell id="xkb5xISunmPG4iCDEJVh-87" value="&lt;div&gt;n=len(param)&lt;/div&gt;" style="rounded=0;whiteSpace=wrap;html=1;" vertex="1" parent="WIyWlLk6GJQsqaUBKTNV-1">
          <mxGeometry x="1492.99" y="246" width="112" height="83" as="geometry" />
        </mxCell>
        <mxCell id="xkb5xISunmPG4iCDEJVh-91" value="Конец" style="rounded=1;whiteSpace=wrap;html=1;" vertex="1" parent="WIyWlLk6GJQsqaUBKTNV-1">
          <mxGeometry x="1488.99" y="735" width="120" height="60" as="geometry" />
        </mxCell>
        <mxCell id="xkb5xISunmPG4iCDEJVh-92" value="Да" style="text;html=1;align=center;verticalAlign=middle;resizable=0;points=[];autosize=1;strokeColor=none;fillColor=none;" vertex="1" parent="WIyWlLk6GJQsqaUBKTNV-1">
          <mxGeometry x="1555" y="421.5" width="33" height="26" as="geometry" />
        </mxCell>
        <mxCell id="xkb5xISunmPG4iCDEJVh-93" value="" style="edgeStyle=orthogonalEdgeStyle;rounded=0;orthogonalLoop=1;jettySize=auto;html=1;exitX=0.5;exitY=1;exitDx=0;exitDy=0;entryX=0.5;entryY=0;entryDx=0;entryDy=0;" edge="1" parent="WIyWlLk6GJQsqaUBKTNV-1" source="xkb5xISunmPG4iCDEJVh-87" target="xkb5xISunmPG4iCDEJVh-94">
          <mxGeometry relative="1" as="geometry">
            <mxPoint x="1548" y="413" as="sourcePoint" />
            <mxPoint x="1549.0833333333333" y="357.0440700218819" as="targetPoint" />
          </mxGeometry>
        </mxCell>
        <mxCell id="xkb5xISunmPG4iCDEJVh-98" style="edgeStyle=orthogonalEdgeStyle;rounded=0;orthogonalLoop=1;jettySize=auto;html=1;entryX=0.5;entryY=0;entryDx=0;entryDy=0;" edge="1" parent="WIyWlLk6GJQsqaUBKTNV-1" source="xkb5xISunmPG4iCDEJVh-94" target="xkb5xISunmPG4iCDEJVh-96">
          <mxGeometry relative="1" as="geometry" />
        </mxCell>
        <mxCell id="xkb5xISunmPG4iCDEJVh-94" value="&lt;div&gt;result= z/n&lt;/div&gt;" style="rounded=0;whiteSpace=wrap;html=1;" vertex="1" parent="WIyWlLk6GJQsqaUBKTNV-1">
          <mxGeometry x="1492.99" y="369" width="112" height="83" as="geometry" />
        </mxCell>
        <mxCell id="xkb5xISunmPG4iCDEJVh-99" style="edgeStyle=orthogonalEdgeStyle;rounded=0;orthogonalLoop=1;jettySize=auto;html=1;" edge="1" parent="WIyWlLk6GJQsqaUBKTNV-1" source="xkb5xISunmPG4iCDEJVh-96" target="xkb5xISunmPG4iCDEJVh-97">
          <mxGeometry relative="1" as="geometry" />
        </mxCell>
        <mxCell id="xkb5xISunmPG4iCDEJVh-96" value="print result" style="rounded=0;whiteSpace=wrap;html=1;" vertex="1" parent="WIyWlLk6GJQsqaUBKTNV-1">
          <mxGeometry x="1492.99" y="497" width="112" height="83" as="geometry" />
        </mxCell>
        <mxCell id="xkb5xISunmPG4iCDEJVh-100" style="edgeStyle=orthogonalEdgeStyle;rounded=0;orthogonalLoop=1;jettySize=auto;html=1;entryX=0.5;entryY=0;entryDx=0;entryDy=0;" edge="1" parent="WIyWlLk6GJQsqaUBKTNV-1" source="xkb5xISunmPG4iCDEJVh-97" target="xkb5xISunmPG4iCDEJVh-91">
          <mxGeometry relative="1" as="geometry" />
        </mxCell>
        <mxCell id="xkb5xISunmPG4iCDEJVh-97" value="&lt;div&gt;4&lt;/div&gt;" style="rounded=0;whiteSpace=wrap;html=1;" vertex="1" parent="WIyWlLk6GJQsqaUBKTNV-1">
          <mxGeometry x="1492.99" y="609" width="112" height="83" as="geometry" />
        </mxCell>
        <mxCell id="xkb5xISunmPG4iCDEJVh-102" value="Начало" style="rounded=1;whiteSpace=wrap;html=1;" vertex="1" parent="WIyWlLk6GJQsqaUBKTNV-1">
          <mxGeometry x="1677" y="58" width="120" height="60" as="geometry" />
        </mxCell>
        <mxCell id="xkb5xISunmPG4iCDEJVh-120" style="edgeStyle=orthogonalEdgeStyle;rounded=0;orthogonalLoop=1;jettySize=auto;html=1;entryX=0.5;entryY=0;entryDx=0;entryDy=0;" edge="1" parent="WIyWlLk6GJQsqaUBKTNV-1" source="xkb5xISunmPG4iCDEJVh-103" target="xkb5xISunmPG4iCDEJVh-119">
          <mxGeometry relative="1" as="geometry" />
        </mxCell>
        <mxCell id="xkb5xISunmPG4iCDEJVh-103" value="Функция вызывает сама себя это-" style="rounded=0;whiteSpace=wrap;html=1;" vertex="1" parent="WIyWlLk6GJQsqaUBKTNV-1">
          <mxGeometry x="1677" y="150" width="120" height="60" as="geometry" />
        </mxCell>
        <mxCell id="xkb5xISunmPG4iCDEJVh-104" value="" style="endArrow=classic;html=1;rounded=0;fontFamily=Times New Roman;verticalAlign=bottom;labelBackgroundColor=none;fontColor=#000000;textShadow=0;labelBorderColor=default;strokeColor=#000000;entryX=0.5;entryY=0;entryDx=0;entryDy=0;exitX=0.5;exitY=1;exitDx=0;exitDy=0;" edge="1" source="xkb5xISunmPG4iCDEJVh-102" target="xkb5xISunmPG4iCDEJVh-103" parent="WIyWlLk6GJQsqaUBKTNV-1">
          <mxGeometry width="50" height="50" relative="1" as="geometry">
            <mxPoint x="1737" y="139" as="sourcePoint" />
            <mxPoint x="1603.16" y="250" as="targetPoint" />
          </mxGeometry>
        </mxCell>
        <mxCell id="xkb5xISunmPG4iCDEJVh-117" style="edgeStyle=orthogonalEdgeStyle;rounded=0;orthogonalLoop=1;jettySize=auto;html=1;entryX=0.5;entryY=0;entryDx=0;entryDy=0;" edge="1" parent="WIyWlLk6GJQsqaUBKTNV-1" source="xkb5xISunmPG4iCDEJVh-108" target="xkb5xISunmPG4iCDEJVh-111">
          <mxGeometry relative="1" as="geometry" />
        </mxCell>
        <mxCell id="xkb5xISunmPG4iCDEJVh-118" style="edgeStyle=orthogonalEdgeStyle;rounded=0;orthogonalLoop=1;jettySize=auto;html=1;entryX=0;entryY=0.5;entryDx=0;entryDy=0;" edge="1" parent="WIyWlLk6GJQsqaUBKTNV-1" source="xkb5xISunmPG4iCDEJVh-108" target="xkb5xISunmPG4iCDEJVh-103">
          <mxGeometry relative="1" as="geometry">
            <Array as="points">
              <mxPoint x="1657" y="409" />
              <mxPoint x="1657" y="180" />
            </Array>
          </mxGeometry>
        </mxCell>
        <mxCell id="xkb5xISunmPG4iCDEJVh-108" value="рекурсия" style="rhombus;whiteSpace=wrap;html=1;" vertex="1" parent="WIyWlLk6GJQsqaUBKTNV-1">
          <mxGeometry x="1679.7600000000002" y="380" width="114.25" height="57" as="geometry" />
        </mxCell>
        <mxCell id="xkb5xISunmPG4iCDEJVh-111" value="Конец" style="rounded=1;whiteSpace=wrap;html=1;" vertex="1" parent="WIyWlLk6GJQsqaUBKTNV-1">
          <mxGeometry x="1676.89" y="497" width="120" height="60" as="geometry" />
        </mxCell>
        <mxCell id="xkb5xISunmPG4iCDEJVh-112" value="Нет" style="text;html=1;align=center;verticalAlign=middle;resizable=0;points=[];autosize=1;strokeColor=none;fillColor=none;" vertex="1" parent="WIyWlLk6GJQsqaUBKTNV-1">
          <mxGeometry x="1662" y="366" width="38" height="26" as="geometry" />
        </mxCell>
        <mxCell id="xkb5xISunmPG4iCDEJVh-114" value="Задание 7" style="text;html=1;align=center;verticalAlign=middle;whiteSpace=wrap;rounded=0;" vertex="1" parent="WIyWlLk6GJQsqaUBKTNV-1">
          <mxGeometry x="1706.99" y="13" width="60" height="30" as="geometry" />
        </mxCell>
        <mxCell id="xkb5xISunmPG4iCDEJVh-121" style="edgeStyle=orthogonalEdgeStyle;rounded=0;orthogonalLoop=1;jettySize=auto;html=1;entryX=0.5;entryY=0;entryDx=0;entryDy=0;" edge="1" parent="WIyWlLk6GJQsqaUBKTNV-1" source="xkb5xISunmPG4iCDEJVh-119" target="xkb5xISunmPG4iCDEJVh-108">
          <mxGeometry relative="1" as="geometry" />
        </mxCell>
        <mxCell id="xkb5xISunmPG4iCDEJVh-119" value="Рекурсия" style="shape=parallelogram;perimeter=parallelogramPerimeter;whiteSpace=wrap;html=1;fixedSize=1;" vertex="1" parent="WIyWlLk6GJQsqaUBKTNV-1">
          <mxGeometry x="1676.89" y="277" width="120" height="60" as="geometry" />
        </mxCell>
        <mxCell id="xkb5xISunmPG4iCDEJVh-122" value="Да" style="text;html=1;align=center;verticalAlign=middle;resizable=0;points=[];autosize=1;strokeColor=none;fillColor=none;" vertex="1" parent="WIyWlLk6GJQsqaUBKTNV-1">
          <mxGeometry x="1752" y="444" width="33" height="26" as="geometry" />
        </mxCell>
      </root>
    </mxGraphModel>
  </diagram>
</mxfile>
